<?xml version="1.0" standalone="no"?>
<!DOCTYPE svg PUBLIC "-//W3C//DTD SVG 20010904//EN"
 "http://www.w3.org/TR/2001/REC-SVG-20010904/DTD/svg10.dtd">
<svg version="1.0" xmlns="http://www.w3.org/2000/svg"
 width="248.000000pt" height="237.000000pt" viewBox="0 0 248.000000 237.000000"
 preserveAspectRatio="xMidYMid meet">

<g transform="translate(0.000000,237.000000) scale(0.100000,-0.100000)"
fill="#ab4afc" stroke="none">
<path d="M671 2121 c-20 -20 -21 -31 -21 -233 0 -117 5 -229 10 -249 10 -35
50 -66 71 -54 13 9 11 42 -3 66 -11 17 -9 27 13 67 24 43 29 47 65 47 28 0 49
8 76 30 34 27 37 34 32 62 -6 32 -4 34 47 58 66 30 80 31 103 4 14 -16 25 -20
48 -15 17 3 37 6 44 6 10 0 14 13 14 40 0 48 -15 59 -120 89 -80 22 -314 89
-342 98 -9 3 -26 -5 -37 -16z"/>
<path d="M1322 1934 l-22 -15 0 -435 c0 -269 4 -442 10 -454 11 -20 22 -24
175 -65 55 -15 172 -49 260 -75 151 -46 323 -94 390 -110 17 -4 41 -3 53 1
l22 8 0 449 c0 348 -3 452 -12 459 -7 6 -78 29 -158 52 -80 22 -197 56 -260
75 -243 72 -429 126 -432 126 -2 0 -14 -7 -26 -16z m68 -15 c12 -8 10 -10 -10
-8 -41 2 -51 0 -49 -13 1 -7 0 -22 -1 -33 -2 -17 -3 -16 -9 5 -15 48 27 78 69
49z m397 -115 c-3 -3 -12 -4 -19 -1 -8 3 -5 6 6 6 11 1 17 -2 13 -5z m372
-105 c35 -12 43 -34 9 -24 -21 7 -59 35 -47 35 3 0 20 -5 38 -11z"/>
<path d="M1060 1816 c-88 -23 -182 -104 -221 -189 -28 -64 -26 -72 32 -86 27
-7 51 -12 53 -10 1 2 10 25 20 51 29 77 116 138 200 138 25 0 26 2 26 55 l0
55 -32 -1 c-18 0 -53 -6 -78 -13z"/>
<path d="M282 1568 c-19 -19 -17 -891 2 -907 11 -9 319 -102 521 -156 28 -8
106 -30 175 -49 143 -41 151 -42 173 -18 15 17 17 63 17 450 l0 432 -22 14
c-13 8 -43 20 -68 26 -25 6 -92 26 -150 45 -58 18 -166 50 -240 70 -74 20
-155 43 -178 51 -62 20 -189 54 -205 54 -7 0 -18 -5 -25 -12z"/>
<path d="M1500 785 c-26 -55 -97 -112 -149 -121 -20 -3 -42 -7 -48 -9 -15 -5
-18 -101 -4 -110 32 -19 203 56 251 112 27 30 80 123 80 138 0 9 -66 35 -89
35 -13 0 -26 -15 -41 -45z"/>
<path d="M1710 760 c0 -10 8 -23 17 -29 16 -8 16 -12 3 -38 -35 -70 -50 -84
-83 -78 -48 8 -101 -41 -102 -92 0 -31 -5 -40 -30 -52 -16 -8 -39 -19 -49 -24
-16 -8 -24 -4 -41 17 -25 32 -58 33 -103 6 -30 -19 -33 -24 -27 -53 4 -18 14
-39 23 -48 14 -14 325 -105 429 -125 58 -11 59 -6 67 239 9 254 5 271 -53 287
-49 13 -51 13 -51 -10z"/>
</g>
</svg>
